<svg xmlns="http://www.w3.org/2000/svg" xmlns:xlink="http://www.w3.org/1999/xlink" viewBox="0 0 278 250" preserveAspectRatio="xMidYMid" style="display: block; shape-rendering: auto; background: transparent;" width="278" height="250"><style type="text/css">
  .ld-text text {
    text-anchor: middle;
    dominant-baseline: middle;
    font-size: 80px;
    opacity: 0;
    user-select: none;
    pointer-events: none;
  }
</style>
<g style="transform-origin:139px 125px;transform:scale(1)" class="ld-text">
<g transform="translate(139,125)">
  <g transform="scale(1.0000) translate(0,0)"><g class="path" style="opacity: 1; transform-origin: -92.03px -2.08px; transform: matrix3d(0.91, 0, 0, 0, 0, 0.91, 0, 0, 0, 0, 0.91, 0, 0, 0, 0, 1); animation: 1s linear -0.55s infinite normal forwards running animate-fq4llu1ux8d; transform-box: view-box;"><path d="M37.97 30.44L37.97 30.44Q37.97 23.49 30.47 19.27L30.47 19.27Q28.98 18.49 21.33 15.13L21.33 15.13Q14.38 12.16 12.58 9.04L12.58 9.04Q11.64 7.32 11.64 5.37L11.64 5.37Q11.64 0.13 16.72-1.90L16.72-1.90Q18.91-2.76 21.56-2.76L21.56-2.76Q28.13-2.76 31.56 1.69L31.56 1.69Q33.83 4.74 33.75 9.12L33.75 9.12L36.09 9.12L36.09-4.56Q34.22-4.56 33.91-3.38L33.91-3.38Q33.75-2.84 33.75-1.90L33.75-1.90Q28.20-4.95 21.25-4.95L21.25-4.95Q12.81-4.95 8.13-0.26L8.13-0.26Q5 3.02 5 7.40L5 7.40Q5 13.96 12.34 18.10L12.34 18.10Q13.67 18.80 21.25 22.08L21.25 22.08Q28.28 25.21 30.16 28.41L30.16 28.41Q31.17 30.21 31.17 32.32L31.17 32.32Q31.17 37.79 25.86 40.21L25.86 40.21Q23.36 41.30 20.31 41.30L20.31 41.30Q8.36 41.15 7.03 26.69L7.03 26.69L4.69 26.69L4.69 42.87Q6.56 42.87 6.88 41.77L6.88 41.77Q7.03 41.15 7.03 39.51L7.03 39.51Q13.05 43.49 20.70 43.49L20.70 43.49Q29.69 43.49 34.61 38.65L34.61 38.65Q37.97 35.21 37.97 30.44" style="fill: rgb(15, 15, 15);" transform="translate(-113.360,-21.354)"></path></g><g class="path" style="opacity: 1; transform-origin: -48.94px -4.03px; transform: matrix3d(0.91, 0, 0, 0, 0, 0.91, 0, 0, 0, 0, 0.91, 0, 0, 0, 0, 1); animation: 1s linear -0.44s infinite normal forwards running animate-fq4llu1ux8d; transform-box: view-box;"><path d="M60 40.76L60 40.76L56.09 40.76L56.09 23.88Q56.09 16.77 61.02 13.57L61.02 13.57Q63.05 12.24 65.23 12.24L65.23 12.24Q70 12.24 71.88 16.69L71.88 16.69Q72.73 18.80 72.73 21.38L72.73 21.38L72.73 36.07Q72.73 39.66 71.02 40.37L71.02 40.37Q69.92 40.76 67.27 40.76L67.27 40.76L67.27 42.71L84.45 42.71Q84.45 40.99 83.28 40.83L83.28 40.83Q82.97 40.76 82.50 40.76L82.50 40.76L78.59 40.76L78.59 21.38Q78.59 12.87 72.97 9.82L72.97 9.82Q70.78 8.73 68.28 8.73L68.28 8.73Q62.50 8.73 58.59 12.94L58.59 12.94Q56.95 14.74 56.09 17.01L56.09 17.01L56.09-8.07L44.38-8.07L44.38-6.12L50.23-6.12L50.23 36.07Q50.23 39.66 48.20 40.37L48.20 40.37Q47.03 40.76 44.38 40.76L44.38 40.76L44.38 42.71L61.95 42.71Q61.95 40.99 60.78 40.83L60.78 40.83Q60.47 40.76 60 40.76" style="fill: rgb(198, 164, 90);" transform="translate(-113.360,-21.354)"></path></g><g class="path" style="opacity: 1; transform-origin: -6.88px 4.76px; transform: matrix3d(0.91, 0, 0, 0, 0, 0.91, 0, 0, 0, 0, 0.91, 0, 0, 0, 0, 1); animation: 1s linear -0.33s infinite normal forwards running animate-fq4llu1ux8d; transform-box: view-box;"><path d="M117.03 43.49L117.03 43.49Q123.05 43.49 123.67 36.23L123.67 36.23Q123.75 35.76 123.75 35.37L123.75 35.37L121.72 35.29Q121.17 40.99 118.67 41.07L118.67 41.07Q116.64 40.91 116.56 37.01L116.56 37.01L116.56 20.52Q116.56 9.35 105.39 8.73L105.39 8.73Q104.69 8.73 103.98 8.73L103.98 8.73Q95.23 8.73 92.27 12.79L92.27 12.79Q91.33 14.12 91.33 15.44L91.33 15.44Q91.33 17.87 93.59 18.26L93.59 18.26Q93.98 18.33 94.38 18.33L94.38 18.33Q96.17 18.33 97.03 16.07L97.03 16.07Q98.13 13.18 98.52 12.63L98.52 12.63Q100 10.68 103.13 10.68L103.13 10.68Q110.47 11.15 110.70 18.73L110.70 18.73L110.70 23.65Q92.34 23.65 89.69 31.30L89.69 31.30Q89.22 32.79 89.22 34.51L89.22 34.51Q89.22 40.44 94.45 42.63L94.45 42.63Q96.56 43.49 98.91 43.49L98.91 43.49Q104.61 43.49 108.52 39.58L108.52 39.58Q109.92 38.10 110.63 36.46L110.63 36.46Q111.56 43.41 117.03 43.49 zM101.48 40.37L101.48 40.37Q96.72 40.37 95.63 35.60L95.63 35.60Q95.39 34.51 95.39 33.18L95.39 33.18Q95.39 27.94 101.41 26.54L101.41 26.54Q104.61 25.83 110.70 25.76L110.70 25.76L110.70 32.01Q109.53 37.40 105 39.58L105 39.58Q103.20 40.37 101.48 40.37" style="fill: rgb(205, 192, 163);" transform="translate(-113.360,-21.354)"></path></g><g class="path" style="opacity: 1; transform-origin: 24.06px 0.65px; transform: matrix3d(0.91, 0, 0, 0, 0, 0.91, 0, 0, 0, 0, 0.91, 0, 0, 0, 0, 1); animation: 1s linear -0.22s infinite normal forwards running animate-fq4llu1ux8d; transform-box: view-box;"><path d="M125.70 9.51L125.70 11.46L131.17 11.46L131.17 33.49Q131.72 43.26 140.16 43.57L140.16 43.57Q147.34 43.57 149.14 34.74L149.14 34.74Q149.14 34.66 149.14 34.58L149.14 34.58L147.03 34.19Q145.08 40.68 141.33 41.23L141.33 41.23Q137.11 41.07 137.03 35.21L137.03 35.21L137.03 11.46L149.14 11.46L149.14 9.51L137.03 9.51L137.03 0.44L131.17 2.08L131.17 9.51L125.70 9.51" style="fill: rgb(140, 106, 97);" transform="translate(-113.360,-21.354)"></path></g><g class="path" style="opacity: 1; transform-origin: 58.71px -4.03px; transform: matrix3d(0.91, 0, 0, 0, 0, 0.91, 0, 0, 0, 0, 0.91, 0, 0, 0, 0, 1); animation: 1s linear -0.11s infinite normal forwards running animate-fq4llu1ux8d; transform-box: view-box;"><path d="M167.66 40.76L167.66 40.76L163.75 40.76L163.75 23.88Q163.75 16.77 168.67 13.57L168.67 13.57Q170.70 12.24 172.89 12.24L172.89 12.24Q177.66 12.24 179.53 16.69L179.53 16.69Q180.39 18.80 180.39 21.38L180.39 21.38L180.39 36.07Q180.39 39.66 178.67 40.37L178.67 40.37Q177.58 40.76 174.92 40.76L174.92 40.76L174.92 42.71L192.11 42.71Q192.11 40.99 190.94 40.83L190.94 40.83Q190.63 40.76 190.16 40.76L190.16 40.76L186.25 40.76L186.25 21.38Q186.25 12.87 180.63 9.82L180.63 9.82Q178.44 8.73 175.94 8.73L175.94 8.73Q170.16 8.73 166.25 12.94L166.25 12.94Q164.61 14.74 163.75 17.01L163.75 17.01L163.75-8.07L152.03-8.07L152.03-6.12L157.89-6.12L157.89 36.07Q157.89 39.66 155.86 40.37L155.86 40.37Q154.69 40.76 152.03 40.76L152.03 40.76L152.03 42.71L169.61 42.71Q169.61 40.99 168.44 40.83L168.44 40.83Q168.13 40.76 167.66 40.76" style="fill: rgb(188, 182, 166);" transform="translate(-113.360,-21.354)"></path></g><g class="path" style="opacity: 1; transform-origin: 100.79px 4.76px; transform: matrix3d(0.91, 0, 0, 0, 0, 0.91, 0, 0, 0, 0, 0.91, 0, 0, 0, 0, 1); animation: 1s linear 0s infinite normal forwards running animate-fq4llu1ux8d; transform-box: view-box;"><path d="M224.69 43.49L224.69 43.49Q230.70 43.49 231.33 36.23L231.33 36.23Q231.41 35.76 231.41 35.37L231.41 35.37L229.38 35.29Q228.83 40.99 226.33 41.07L226.33 41.07Q224.30 40.91 224.22 37.01L224.22 37.01L224.22 20.52Q224.22 9.35 213.05 8.73L213.05 8.73Q212.34 8.73 211.64 8.73L211.64 8.73Q202.89 8.73 199.92 12.79L199.92 12.79Q198.98 14.12 198.98 15.44L198.98 15.44Q198.98 17.87 201.25 18.26L201.25 18.26Q201.64 18.33 202.03 18.33L202.03 18.33Q203.83 18.33 204.69 16.07L204.69 16.07Q205.78 13.18 206.17 12.63L206.17 12.63Q207.66 10.68 210.78 10.68L210.78 10.68Q218.13 11.15 218.36 18.73L218.36 18.73L218.36 23.65Q200 23.65 197.34 31.30L197.34 31.30Q196.88 32.79 196.88 34.51L196.88 34.51Q196.88 40.44 202.11 42.63L202.11 42.63Q204.22 43.49 206.56 43.49L206.56 43.49Q212.27 43.49 216.17 39.58L216.17 39.58Q217.58 38.10 218.28 36.46L218.28 36.46Q219.22 43.41 224.69 43.49 zM209.14 40.37L209.14 40.37Q204.38 40.37 203.28 35.60L203.28 35.60Q203.05 34.51 203.05 33.18L203.05 33.18Q203.05 27.94 209.06 26.54L209.06 26.54Q212.27 25.83 218.36 25.76L218.36 25.76L218.36 32.01Q217.19 37.40 212.66 39.58L212.66 39.58Q210.86 40.37 209.14 40.37" style="fill: rgb(15, 15, 15);" transform="translate(-113.360,-21.354)"></path></g></g><text dy="0.35em" fill="#0f0f0f" font-family="Abhaya Libre" font-size="80">Shatha</text>
</g>
</g><style type="text/css">@keyframes animate-fq4llu1ux8d { 0.00% {transform: translate(0.00px,0.00px) rotate(0.00deg) scale(0.91, 0.91) skew(0deg, 0.00deg) ;opacity: 1.00;}4.00% {transform: translate(0.00px,0.00px) rotate(0.00deg) scale(0.91, 0.91) ;}8.00% {animation-timing-function: cubic-bezier(0.69,0.60,0.35,0.27);transform: translate(0.00px,0.00px) rotate(0.00deg) scale(0.91, 0.91) ;}14.00% {transform: translate(0.00px,0.00px) rotate(0.00deg) scale(0.93, 0.93) ;}18.00% {transform: translate(0.00px,0.00px) rotate(0.00deg) scale(0.94, 0.94) ;}22.00% {animation-timing-function: cubic-bezier(0.67,0.66,0.34,0.33);transform: translate(0.00px,0.00px) rotate(0.00deg) scale(0.96, 0.96) ;}26.00% {transform: translate(0.00px,0.00px) rotate(0.00deg) scale(0.97, 0.97) ;}30.00% {transform: translate(0.00px,0.00px) rotate(0.00deg) scale(0.99, 0.99) ;}34.00% {animation-timing-function: cubic-bezier(0.65,0.71,0.32,0.38);transform: translate(0.00px,0.00px) rotate(0.00deg) scale(1.01, 1.01) ;}40.00% {animation-timing-function: cubic-bezier(0.64,0.74,0.31,0.41);transform: translate(0.00px,0.00px) rotate(0.00deg) scale(1.02, 1.02) ;}46.00% {animation-timing-function: cubic-bezier(0.60,0.91,0.23,0.63);transform: translate(0.00px,0.00px) rotate(0.00deg) scale(1.03, 1.03) ;}50.00% {transform: translate(0.00px,0.00px) rotate(0.00deg) scale(1.03, 1.03) ;}54.00% {transform: translate(0.00px,0.00px) rotate(0.00deg) scale(1.03, 1.03) ;}58.00% {animation-timing-function: cubic-bezier(0.69,0.60,0.35,0.27);transform: translate(0.00px,0.00px) rotate(0.00deg) scale(1.03, 1.03) ;}64.00% {transform: translate(0.00px,0.00px) rotate(0.00deg) scale(1.01, 1.01) ;}68.00% {transform: translate(0.00px,0.00px) rotate(0.00deg) scale(1.00, 1.00) ;}72.00% {animation-timing-function: cubic-bezier(0.67,0.66,0.34,0.33);transform: translate(0.00px,0.00px) rotate(0.00deg) scale(0.98, 0.98) ;}76.00% {animation-timing-function: cubic-bezier(0.66,0.68,0.33,0.35);transform: translate(0.00px,0.00px) rotate(0.00deg) scale(0.97, 0.97) ;}82.00% {animation-timing-function: cubic-bezier(0.65,0.71,0.32,0.38);transform: translate(0.00px,0.00px) rotate(0.00deg) scale(0.94, 0.94) ;}88.00% {animation-timing-function: cubic-bezier(0.65,0.73,0.31,0.40);transform: translate(0.00px,0.00px) rotate(0.00deg) scale(0.92, 0.92) ;}94.00% {animation-timing-function: cubic-bezier(0.63,0.80,0.28,0.48);transform: translate(0.00px,0.00px) rotate(0.00deg) scale(0.91, 0.91) ;}100.00% {animation-timing-function: cubic-bezier(0.63,0.80,0.28,0.48);transform: translate(0.00px,0.00px) rotate(0.00deg) scale(0.91, 0.91) ;} }</style><!-- [ldio] generated by https://loading.io --></svg>